Coordinates
version=1
nRows=54
nColumns=12
inDegrees=yes

Units are S.I. units (second, meters, Newtons, ...)
Angles are in degrees

endheader
time	SC_y	SC_z	SC_x	AC_y	AC_z	AC_x	GH_y	GH_z	GH_yy	EL_x	PS_y
       0.0              -44.02          13.01           75.9          33.83         -19.26         -4.123         -87.58            9.6         -113.9          52.45          108.5
   0.02385              -44.02          13.02           75.9          33.83         -19.25         -4.121         -87.56          9.607         -113.9          52.46          108.5
    0.0477              -44.02          13.02          75.89          33.83         -19.25         -4.119         -87.53          9.615         -113.8          52.47          108.5
   0.07156              -44.01          13.02          75.88          33.83         -19.25         -4.117          -87.5          9.623         -113.8          52.48          108.5
   0.09541              -44.01          13.02          75.87          33.84         -19.24         -4.115         -87.47          9.632         -113.7          52.49          108.5
    0.1193               -44.0          13.02          75.87          33.84         -19.24         -4.113         -87.44          9.641         -113.7           52.5          108.5
    0.1431               -44.0          13.02          75.86          33.84         -19.23         -4.111          -87.4          9.651         -113.6          52.51          108.5
     0.167              -43.99          13.02          75.85          33.84         -19.23         -4.108         -87.36          9.661         -113.6          52.52          108.5
    0.1908              -43.98          13.02          75.84          33.84         -19.22         -4.105         -87.32          9.672         -113.5          52.53          108.5
    0.2147              -43.98          13.02          75.83          33.85         -19.22         -4.102         -87.28          9.685         -113.5          52.54          108.5
    0.2385              -43.97          13.02          75.82          33.85         -19.21         -4.099         -87.23          9.697         -113.4          52.56          108.5
    0.2624              -43.96          13.02           75.8          33.85          -19.2         -4.096         -87.18          9.711         -113.3          52.57          108.5
    0.2862              -43.95          13.02          75.79          33.86          -19.2         -4.092         -87.12          9.726         -113.3          52.59          108.5
    0.3101              -43.95          13.02          75.78          33.86         -19.19         -4.088         -87.07          9.743         -113.2           52.6          108.5
    0.3339              -43.94          13.02          75.76          33.86         -19.18         -4.084          -87.0           9.76         -113.1          52.62          108.5
    0.3578              -43.92          13.02          75.75          33.87         -19.17         -4.079         -86.93          9.779         -113.0          52.64          108.5
    0.3816              -43.91          13.02          75.73          33.87         -19.16         -4.074         -86.86            9.8         -112.9          52.66          108.5
    0.4055               -43.9          13.02          75.71          33.88         -19.15         -4.068         -86.77          9.822         -112.8          52.68          108.5
    0.4293              -43.89          13.02          75.69          33.88         -19.14         -4.062         -86.68          9.847         -112.7          52.71          108.5
    0.4532              -43.87          13.02          75.66          33.89         -19.13         -4.056         -86.59          9.874         -112.5          52.74          108.5
     0.477              -43.86          13.02          75.64          33.89         -19.12         -4.048         -86.48          9.904         -112.4          52.77          108.5
    0.5009              -43.84          13.03          75.61           33.9          -19.1          -4.04         -86.36          9.936         -112.2           52.8          108.5
    0.5247              -43.82          13.03          75.58          33.91         -19.09         -4.031         -86.23          9.972         -112.1          52.84          108.5
    0.5486              -43.79          13.03          75.54          33.92         -19.07         -4.022         -86.08          10.01         -111.9          52.88          108.5
    0.5724              -43.77          13.03           75.5          33.93         -19.05         -4.011         -85.92          10.06         -111.6          52.93          108.5
    0.5963              -43.74          13.03          75.46          33.94         -19.02         -3.999         -85.74          10.11         -111.4          52.98          108.5
    0.6201              -43.71          13.03          75.41          33.95          -19.0         -3.985         -85.54          10.16         -111.1          53.03          108.5
     0.644              -43.68          13.04          75.36          33.96         -18.97          -3.97         -85.31          10.22         -110.8           53.1          108.5
    0.6679              -43.64          13.04           75.3          33.98         -18.94         -3.952         -85.06          10.29         -110.5          53.17          108.5
    0.6917              -43.59          13.04          75.23           34.0          -18.9         -3.933         -84.77          10.37         -110.1          53.25          108.5
    0.7156              -43.54          13.04          75.15          34.02         -18.86          -3.91         -84.43          10.46         -109.6          53.35          108.5
    0.7394              -43.48          13.05          75.06          34.04         -18.81         -3.884         -84.05          10.57         -109.1          53.46          108.4
    0.7633              -43.42          13.05          74.95          34.06         -18.76         -3.855         -83.61          10.69         -108.5          53.58          108.4
    0.7871              -43.34          13.06          74.83          34.09         -18.69          -3.82          -83.1          10.83         -107.8          53.73          108.4
     0.811              -43.25          13.06          74.68          34.13         -18.62         -3.779          -82.5          10.99         -107.0           53.9          108.4
    0.8348              -43.14          13.07          74.51          34.17         -18.53         -3.732          -81.8          11.19         -106.1           54.1          108.4
    0.8587              -43.01          13.07          74.31          34.22         -18.43         -3.675         -80.96          11.42         -104.9          54.34          108.4
    0.8825              -42.85          13.08          74.07          34.28          -18.3         -3.607         -79.95          11.69         -103.6          54.62          108.4
    0.9064              -42.67          13.09          73.78          34.35         -18.15         -3.525         -78.73          12.03         -101.9          54.97          108.4
    0.9302              -42.44          13.11          73.43          34.44         -17.96         -3.424         -77.25          12.44         -99.91          55.39          108.3
    0.9541              -42.16          13.12          72.99          34.55         -17.73           -3.3         -75.41          12.94         -97.42          55.91          108.3
    0.9779              -41.81          13.15          72.44          34.68         -17.45         -3.146         -73.13          13.57         -94.33          56.56          108.3
     1.002              -41.37          13.17          71.75          34.85         -17.09         -2.951         -70.25          14.36         -90.43          57.38          108.2
     1.026              -40.81           13.2          70.87          35.07         -16.63         -2.703         -66.58          15.36         -85.47          58.42          108.2
     1.049              -40.09          13.25          69.75          35.34         -16.04         -2.386          -61.9          16.65         -79.13          59.75          108.1
     1.073              -39.17           13.3          68.31           35.7         -15.29          -1.98         -55.88           18.3         -70.98          61.45          108.0
     1.097              -37.99          13.37          66.47          36.15         -14.33          -1.46          -48.2          20.41         -60.58          63.64          107.9
     1.121              -36.51          13.46          64.15          36.72         -13.12        -0.8071         -38.53          23.06          -47.5          66.38          107.8
     1.145               -34.7          13.56          61.33          37.41         -11.64       -0.01105         -26.76          26.29         -31.57          69.72          107.6
     1.169              -32.61          13.69          58.06          38.22         -9.935         0.9116         -13.11          30.03         -13.09           73.6          107.4
     1.193              -30.34          13.82          54.52          39.09         -8.085          1.911          1.669          34.09          6.909          77.79          107.2
     1.216              -28.08          13.95          50.98          39.96         -6.235           2.91          16.45          38.14          26.91          81.99          107.0
      1.24              -25.99          14.07          47.72          40.77         -4.527          3.832           30.1          41.89          45.38          85.86          106.8
     1.264              -24.18          14.18          44.89          41.46         -3.054          4.628          41.87          45.12          61.32           89.2          106.6
